# xmcd
#
# Track frame offsets: 
#        150
#        21149
#        37020
#        54294
#        72256
#        89123
#        113121
#        132545
#        151491
#        168347
#        190215
#        213586
#        227047
#        245398
#        260173
#        279317
#
# Disc length: 3978 seconds
#
# Revision: 0
# Processed by: cddbd v1.5.2PL0 Copyright (c) Steve Scherf et al.
# Submitted via: ExactAudioCopyFreeDBPlugin 1.0
#
DISCID=eb0f8810
DTITLE=Jay-Z - Pride Of Marcy [CD2]
DYEAR=2009
DGENRE=Rap
TTITLE0=You're The One (DJ Clark Kent Remix)
TTITLE1=Dead Presidents (Original Verses)
TTITLE2=Don't Wanna Be Alone (Remix) Feat. Shai
TTITLE3=All Of My Days Feat. R. Kelly and Changing Faces
TTITLE4=Dead Or Alive Part 1 Feat. Sauce Money
TTITLE5=So Many Ways (Trina's Mix) Feat. The Braxtons
TTITLE6=Foundation Feat. Big Jaz, Sauce Money and Tone Hooker
TTITLE7=Things We Do For Love (Clark Kent Remix)
TTITLE8=Feelin' It (New Mixshow Clean Lyrics)
TTITLE9='96 Anthem - You're The One (Allstar Rap Remix) Feat. SWV, Mr.
TTITLE9=Cheeks, Busta Rhymes, Trigga Tha Gambler and Smooth Da Hustler
TTITLE10=I Love The Dough Feat. The Notorious B.I.G.
TTITLE11=I'll Be Feat. Foxy Brown
TTITLE12=Who You Wit Part I
TTITLE13=Cheat On You Feat. Ma$e and Lil' Cease
TTITLE14=Single Life Feat. Mic Geronimo and Carl Thomas
TTITLE15=Big Momma Thang Feat. Lil' Kim and Lil' Cease
EXTD=
EXTT0=
EXTT1=
EXTT2=
EXTT3=
EXTT4=
EXTT5=
EXTT6=
EXTT7=
EXTT8=
EXTT9=
EXTT10=
EXTT11=
EXTT12=
EXTT13=
EXTT14=
EXTT15=
PLAYORDER=
